<svg xmlns="http://www.w3.org/2000/svg" width="95.388" height="28.739" viewBox="0 0 95.388 28.739">
  <g id="logo" transform="translate(-300.612 -29.131)">
    <g id="Group_1275" data-name="Group 1275" transform="translate(29.445)">
      <path id="Path_36" data-name="Path 36" d="M349.994,686.32a6.079,6.079,0,0,1,4.881,2.633l.179.254,1.574-.711-.231-.365a6.6,6.6,0,0,0-.943-1.17,7.717,7.717,0,0,0-5.3-2.375h-.289a7.811,7.811,0,0,0-5.311,2.375,8.2,8.2,0,0,0,0,11.4,7.816,7.816,0,0,0,5.322,2.373h.289a7.7,7.7,0,0,0,5.286-2.37,6.668,6.668,0,0,0,.948-1.174l.231-.365-1.573-.713-.18.255a6.162,6.162,0,0,1-4.864,2.654,6.359,6.359,0,0,1-.016-12.7Z" transform="translate(-45.294 -649.159)" fill="#fff"/>
      <path id="Path_37" data-name="Path 37" d="M367.962,698.742H360.2v-3.767h5.756v-1.734H360.2v-6.773h7.5v-1.713h-9.239v15.7h9.495Z" transform="translate(-45.663 -649.116)" fill="#fff"/>
      <path id="Path_38" data-name="Path 38" d="M382.119,700.438v-1.713h-8.76l9.232-13.987H371.366v1.713H379.4l-9.253,13.987Z" transform="translate(-46.377 -649.12)" fill="#fff"/>
      <path id="Path_39" data-name="Path 39" d="M386.41,687.967l5.386,6.523,5.119-6.448v12.409h1.713V684.773H397.3l-5.538,6.984-5.744-6.984H384.7v15.678h1.713Z" transform="translate(-47.012 -649.111)" fill="#fff"/>
      <path id="Path_40" data-name="Path 40" d="M407.482,684.722h-1.176l-6.09,15.742h1.853l1.09-2.837a11.723,11.723,0,0,0,3.789.555,11.959,11.959,0,0,0,3.77-.539l1.111,2.82h1.855Zm-.534,11.748a9.843,9.843,0,0,1-3.107-.436l-.046-.012,3.113-8.052,3.173,8.078A10.319,10.319,0,0,1,406.948,696.47Z" transform="translate(-47.13 -649.124)" fill="#fff"/>
    </g>
    <path id="Path_35" data-name="Path 35" d="M320.121,673.22h-1.2a.662.662,0,0,0-.662.662v1.773h0a1.218,1.218,0,0,1-.648,1.055.974.974,0,0,1-.406.172,1.27,1.27,0,0,1-1.437-1.575,1.254,1.254,0,0,1,.9-.9,1.276,1.276,0,0,1,1.069.2v-1.254a5.056,5.056,0,0,0-4.361-5.062,4.98,4.98,0,0,0-5.573,4.932h-2.384a1.557,1.557,0,0,0-1.508,1.167q-1.016,8.574-2.045,17.144a2.326,2.326,0,0,0,2.325,2.325h3.081a7.766,7.766,0,0,0,5.211,3.067,8.189,8.189,0,0,0,1.042.068,7.416,7.416,0,0,0,3.263-.75,8.822,8.822,0,0,0,1.56-.977l.049-.038a3.987,3.987,0,0,1,2.045-1.087,1.1,1.1,0,0,1,.635.2l.8.547-.412-.876c-.026-.054-.053-.107-.081-.159a2.325,2.325,0,0,0,2.27-2.323l-2.025-17.144A1.556,1.556,0,0,0,320.121,673.22Zm-12.573,2.141a1.266,1.266,0,0,1,2-.743v-1.3a3.287,3.287,0,0,1,2.5-3.241,3.232,3.232,0,0,1,3.719,1.957.871.871,0,0,1-.813,1.187h-4.239a.662.662,0,0,0-.662.662v1.773h0a1.29,1.29,0,0,1-.033.275h0a1.268,1.268,0,0,1-2.47-.57Zm-2.69,15.924a.718.718,0,1,1,.721.721A.72.72,0,0,1,304.858,691.285Zm1.339,2.183a.412.412,0,1,1,.414-.409A.411.411,0,0,1,306.2,693.468Zm.426-3.119a.62.62,0,0,1-.072.054s-.007.006-.012.008l0,0a.561.561,0,0,1-.79-.595,7.238,7.238,0,0,1,.828-3.17,8.392,8.392,0,0,1,1.948-2.465,7.563,7.563,0,0,1,4.919-1.922,7,7,0,0,1,5.844,3.155,7.114,7.114,0,0,1,.435.767c.818,1.677-1.1,2.72-1.918,1.156-.087-.174-.184-.343-.281-.511a7.7,7.7,0,0,0-1.54-1.923,3.767,3.767,0,0,0-4.56-.463,3.322,3.322,0,0,0-1.453,3.071,4.172,4.172,0,0,0,.367,1.453c.035.071.066.144.1.214a10.873,10.873,0,0,0,.926,1.422c.649.869-.112,1.651-.879,1a3.212,3.212,0,0,1-.455-.511c-.225-.3-.429-.619-.669-.885a1.575,1.575,0,0,0-2.429-.143A2.2,2.2,0,0,1,306.623,690.349Zm7.91,1.942a.455.455,0,1,1-.455-.456A.456.456,0,0,1,314.534,692.29Zm-2.257-1.675a.8.8,0,1,1,.8-.8A.8.8,0,0,1,312.277,690.615Zm.8,1.867a.776.776,0,1,1-.752-.573A.681.681,0,0,1,313.075,692.482Zm4.751,2.188a8.016,8.016,0,0,1-1.412.884,6.751,6.751,0,0,1-3.881.613,7,7,0,0,1-5.232-3.63,4.524,4.524,0,0,1-.224-.42.722.722,0,0,0-.041-.092c-.761-1.718,1.283-2.858,2.255-1.227.251.414.575.822.879,1.248.951,1.145,2.234,2.045,3.768,1.611l.057-.016-.006.005.027-.01c.874-.352,1.677-.905,2.546-1.237a3.115,3.115,0,0,1,4.1,1.4C319.722,693.157,318.7,693.98,317.825,694.671Z" transform="translate(-1.256 -639.122)" fill="#fff"/>
  </g>
</svg>
