<svg xmlns="http://www.w3.org/2000/svg" width="139.111" height="154.893" viewBox="0 0 139.111 154.893">
  <g id="logo" transform="translate(-5.843 47.001)">
    <path id="Path_35" data-name="Path 35" d="M359.208,683.858l-3.766,0a2.08,2.08,0,0,0-2.08,2.08v5.569h0c-.018,1-.271,2.056-2.036,3.315a3.064,3.064,0,0,1-1.277.541,3.99,3.99,0,0,1-4.513-4.948,3.938,3.938,0,0,1,2.829-2.833,4.008,4.008,0,0,1,3.357.627v-3.938a15.881,15.881,0,0,0-13.7-15.9,15.644,15.644,0,0,0-17.507,15.491h-7.487a4.893,4.893,0,0,0-4.735,3.665q-3.19,26.934-6.423,53.854a7.305,7.305,0,0,0,7.3,7.3h9.677a24.4,24.4,0,0,0,16.367,9.633,25.715,25.715,0,0,0,3.274.215,23.292,23.292,0,0,0,10.25-2.356,27.707,27.707,0,0,0,4.9-3.07l.154-.12c2.038-1.6,4.347-3.414,6.425-3.414a3.448,3.448,0,0,1,1.993.639l2.509,1.718-1.293-2.752c-.081-.17-.166-.336-.253-.5a7.3,7.3,0,0,0,7.131-7.3l-6.362-53.854A4.888,4.888,0,0,0,359.208,683.858Zm-39.5,6.725a3.976,3.976,0,0,1,6.281-2.333v-4.084a10.324,10.324,0,0,1,7.852-10.181,10.152,10.152,0,0,1,11.683,6.146,2.737,2.737,0,0,1-2.554,3.727h-6.858l-6.457,0a2.079,2.079,0,0,0-2.078,2.08v5.434l0,.063,0,.033v.04h0a4.053,4.053,0,0,1-.1.864v0h0a3.982,3.982,0,0,1-7.759-1.791ZM311.261,740.6a2.256,2.256,0,1,1,2.264,2.265A2.262,2.262,0,0,1,311.261,740.6Zm4.207,6.856a1.293,1.293,0,1,1,1.3-1.285A1.29,1.29,0,0,1,315.468,747.46Zm1.34-9.8a1.946,1.946,0,0,1-.227.17c-.012.006-.022.02-.036.026l-.006-.012a1.763,1.763,0,0,1-2.483-1.868,22.738,22.738,0,0,1,2.6-9.958,26.361,26.361,0,0,1,6.12-7.743,23.757,23.757,0,0,1,15.453-6.039,21.976,21.976,0,0,1,18.359,9.91,22.34,22.34,0,0,1,1.366,2.41c2.57,5.268-3.471,8.544-6.024,3.63-.273-.546-.577-1.077-.882-1.607a24.17,24.17,0,0,0-4.837-6.041c-4.6-3.977-10.387-4.062-14.323-1.455a10.435,10.435,0,0,0-4.565,9.647,13.1,13.1,0,0,0,1.151,4.563c.109.224.208.451.326.674a34.141,34.141,0,0,0,2.908,4.466c2.04,2.73-.352,5.187-2.762,3.131a10.091,10.091,0,0,1-1.431-1.6c-.706-.933-1.348-1.945-2.1-2.781-2.121-2.376-5.332-2.89-7.631-.449A6.927,6.927,0,0,1,316.808,737.661Zm24.849,6.1a1.43,1.43,0,1,1-1.431-1.431A1.432,1.432,0,0,1,341.656,743.76Zm-7.089-5.261a2.513,2.513,0,1,1,2.521-2.505A2.507,2.507,0,0,1,334.567,738.5Zm2.505,5.865a2.439,2.439,0,1,1-2.362-1.8A2.139,2.139,0,0,1,337.073,744.364ZM352,751.238a25.171,25.171,0,0,1-4.434,2.778,21.207,21.207,0,0,1-12.191,1.927,21.978,21.978,0,0,1-16.436-11.4,14.161,14.161,0,0,1-.7-1.319,2.277,2.277,0,0,0-.13-.289c-2.392-5.4,4.031-8.979,7.085-3.855.787,1.3,1.807,2.582,2.762,3.92,2.987,3.6,7.018,6.425,11.836,5.059l.178-.049-.02.016c.028-.012.057-.02.085-.032,2.746-1.107,5.268-2.843,8-3.885,4.885-1.848,10.507-.66,12.883,4.4C357.955,746.482,354.758,749.068,352,751.238Z" transform="translate(-261.018 -715.253)" fill="#fff"/>
    <g id="Group_1242" data-name="Group 1242" transform="translate(5.843 63.356)">
      <path id="Path_36" data-name="Path 36" d="M354.787,687.394a9.841,9.841,0,0,1,7.9,4.262l.289.411,2.548-1.151-.374-.591a10.672,10.672,0,0,0-1.526-1.894,12.492,12.492,0,0,0-8.584-3.845h-.468a12.644,12.644,0,0,0-8.6,3.845,13.278,13.278,0,0,0,0,18.452,12.653,12.653,0,0,0,8.615,3.841h.468a12.463,12.463,0,0,0,8.556-3.837,10.791,10.791,0,0,0,1.534-1.9l.374-.591-2.546-1.153-.291.413a9.974,9.974,0,0,1-7.874,4.3,10.293,10.293,0,0,1-.026-20.556Z" transform="translate(-342.248 -684.585)" fill="#fff"/>
      <path id="Path_37" data-name="Path 37" d="M373.837,707.4H361.274v-6.1h9.318v-2.807h-9.318V687.528h12.148v-2.773H358.467v25.413h15.369Z" transform="translate(-325.645 -684.41)" fill="#fff"/>
      <path id="Path_38" data-name="Path 38" d="M389.527,710.152v-2.773h-14.18l14.944-22.64H372.121v2.773h13l-14.978,22.641Z" transform="translate(-313.69 -684.428)" fill="#fff"/>
      <path id="Path_39" data-name="Path 39" d="M387.47,689.943l8.718,10.558,8.286-10.437v20.086h2.773V684.773H405.1l-8.964,11.3-9.3-11.3H384.7v25.378h2.772Z" transform="translate(-298.794 -684.393)" fill="#fff"/>
      <path id="Path_40" data-name="Path 40" d="M411.978,684.722h-1.9L400.216,710.2h3l1.765-4.592a18.979,18.979,0,0,0,6.134.9,19.361,19.361,0,0,0,6.1-.872l1.8,4.565h3Zm-.864,19.016a15.935,15.935,0,0,1-5.029-.706l-.075-.02,5.039-13.035,5.136,13.077A16.7,16.7,0,0,1,411.113,703.738Z" transform="translate(-282.908 -684.445)" fill="#fff"/>
      <path id="Path_41" data-name="Path 41" d="M360.343,708.161l-2.279-5.622h-2.337v8.12h1.978v-4.881l1.828,4.881h1.6l1.816-4.87v4.87h1.978v-8.12H362.6Z" transform="translate(-328.449 -666.205)" fill="#fff"/>
      <path id="Path_42" data-name="Path 42" d="M365.78,707.4a1.334,1.334,0,0,1-1.435,1.516c-.935,0-1.41-.556-1.41-1.516V702.54h-1.977v4.847a3.114,3.114,0,0,0,3.353,3.355,3.191,3.191,0,0,0,3.448-3.355V702.54H365.78Z" transform="translate(-323.095 -666.205)" fill="#fff"/>
      <path id="Path_43" data-name="Path 43" d="M366.983,702.54H365v8.12h4.569v-1.527h-2.591Z" transform="translate(-318.953 -666.205)" fill="#fff"/>
      <path id="Path_44" data-name="Path 44" d="M367.514,704.125h2.151v6.535h1.978v-6.535h2.151V702.54h-6.281Z" transform="translate(-316.384 -666.205)" fill="#fff"/>
      <rect id="Rectangle_4" data-name="Rectangle 4" width="1.978" height="8.12" transform="translate(58.406 36.335)" fill="#fff"/>
      <path id="Path_45" data-name="Path 45" d="M377.822,708.67l-2.013-6.13H373.7l2.88,8.12h2.475l2.88-8.12h-2.094Z" transform="translate(-310.047 -666.205)" fill="#fff"/>
      <path id="Path_46" data-name="Path 46" d="M378.18,710.66h4.974v-1.584h-3v-1.781h2.649v-1.527h-2.649v-1.643h3V702.54H378.18Z" transform="translate(-305.466 -666.205)" fill="#fff"/>
      <path id="Path_47" data-name="Path 47" d="M386.559,707.572l-3.308-5.032h-1.978v8.12h1.978v-5.008l3.308,5.008h1.978v-8.12h-1.978Z" transform="translate(-302.3 -666.205)" fill="#fff"/>
      <path id="Path_48" data-name="Path 48" d="M388.613,702.54h-3.042v8.121h3.042a4.065,4.065,0,1,0,0-8.121Zm-.128,6.409h-.937V704.23h.937a2.36,2.36,0,1,1,0,4.719Z" transform="translate(-297.9 -666.205)" fill="#fff"/>
      <path id="Path_49" data-name="Path 49" d="M393.736,702.483a4.159,4.159,0,1,0,4.153,4.153A4.075,4.075,0,0,0,393.736,702.483Zm0,6.512a2.371,2.371,0,1,1,2.139-2.36A2.119,2.119,0,0,1,393.736,709Z" transform="translate(-293.815 -666.263)" fill="#fff"/>
      <path id="Path_50" data-name="Path 50" d="M400.523,705.1c0-1.41-.994-2.556-2.985-2.556h-3.319v8.121H396.2V707.6h.474l1.688,3.066h2.234l-1.874-3.218A2.361,2.361,0,0,0,400.523,705.1Zm-3.1,1.1H396.2v-2.012h1.224c.741,0,1.089.393,1.089.994C398.511,705.814,398.163,706.195,397.422,706.195Z" transform="translate(-289.047 -666.205)" fill="#fff"/>
    </g>
  </g>
</svg>
